<mxfile host="app.diagrams.net" modified="2021-11-30T09:32:58.746Z" agent="5.0 (Macintosh; Intel Mac OS X 10_15_7) AppleWebKit/537.36 (KHTML, like Gecko) Chrome/96.0.4664.55 Safari/537.36" etag="Av0gLfDwdmh_el1iXAjF" version="15.8.6" type="github">
  <diagram id="prtHgNgQTEPvFCAcTncT" name="Page-1">
    <mxGraphModel dx="2549" dy="941" grid="1" gridSize="10" guides="1" tooltips="1" connect="1" arrows="1" fold="1" page="1" pageScale="1" pageWidth="827" pageHeight="1169" math="0" shadow="0">
      <root>
        <mxCell id="0" />
        <mxCell id="1" parent="0" />
        <mxCell id="M7a1UfoR2cArPOc2KeIE-14" style="edgeStyle=orthogonalEdgeStyle;rounded=0;orthogonalLoop=1;jettySize=auto;html=1;exitX=1;exitY=0.5;exitDx=0;exitDy=0;entryX=0;entryY=0.5;entryDx=0;entryDy=0;strokeWidth=2;" edge="1" parent="1" source="M7a1UfoR2cArPOc2KeIE-5" target="M7a1UfoR2cArPOc2KeIE-12">
          <mxGeometry relative="1" as="geometry" />
        </mxCell>
        <mxCell id="M7a1UfoR2cArPOc2KeIE-5" value="第三方渠道" style="rounded=1;whiteSpace=wrap;html=1;fillColor=#f5f5f5;fontColor=#333333;strokeColor=#666666;strokeWidth=2;" vertex="1" parent="1">
          <mxGeometry x="-290" y="340" width="100" height="60" as="geometry" />
        </mxCell>
        <mxCell id="M7a1UfoR2cArPOc2KeIE-20" style="edgeStyle=orthogonalEdgeStyle;rounded=0;orthogonalLoop=1;jettySize=auto;html=1;exitX=0.25;exitY=0;exitDx=0;exitDy=0;entryX=1;entryY=0.75;entryDx=0;entryDy=0;strokeWidth=2;" edge="1" parent="1" source="M7a1UfoR2cArPOc2KeIE-11" target="M7a1UfoR2cArPOc2KeIE-17">
          <mxGeometry relative="1" as="geometry" />
        </mxCell>
        <mxCell id="M7a1UfoR2cArPOc2KeIE-25" style="edgeStyle=orthogonalEdgeStyle;rounded=0;orthogonalLoop=1;jettySize=auto;html=1;exitX=1;exitY=0.5;exitDx=0;exitDy=0;entryX=0;entryY=0.5;entryDx=0;entryDy=0;strokeWidth=2;" edge="1" parent="1" source="M7a1UfoR2cArPOc2KeIE-11" target="M7a1UfoR2cArPOc2KeIE-23">
          <mxGeometry relative="1" as="geometry" />
        </mxCell>
        <mxCell id="M7a1UfoR2cArPOc2KeIE-27" style="edgeStyle=orthogonalEdgeStyle;rounded=0;orthogonalLoop=1;jettySize=auto;html=1;exitX=1;exitY=0.5;exitDx=0;exitDy=0;entryX=0;entryY=0.5;entryDx=0;entryDy=0;strokeWidth=2;" edge="1" parent="1" source="M7a1UfoR2cArPOc2KeIE-11" target="M7a1UfoR2cArPOc2KeIE-24">
          <mxGeometry relative="1" as="geometry" />
        </mxCell>
        <mxCell id="M7a1UfoR2cArPOc2KeIE-11" value="神策服务器" style="rounded=1;whiteSpace=wrap;html=1;fillColor=#fff2cc;strokeColor=#d6b656;strokeWidth=2;" vertex="1" parent="1">
          <mxGeometry x="50" y="340" width="100" height="60" as="geometry" />
        </mxCell>
        <mxCell id="M7a1UfoR2cArPOc2KeIE-15" style="edgeStyle=orthogonalEdgeStyle;rounded=0;orthogonalLoop=1;jettySize=auto;html=1;exitX=1;exitY=0.5;exitDx=0;exitDy=0;entryX=0;entryY=0.5;entryDx=0;entryDy=0;strokeWidth=2;" edge="1" parent="1" source="M7a1UfoR2cArPOc2KeIE-12" target="M7a1UfoR2cArPOc2KeIE-11">
          <mxGeometry relative="1" as="geometry" />
        </mxCell>
        <mxCell id="M7a1UfoR2cArPOc2KeIE-37" style="edgeStyle=orthogonalEdgeStyle;rounded=0;orthogonalLoop=1;jettySize=auto;html=1;exitX=0.5;exitY=0;exitDx=0;exitDy=0;entryX=0.5;entryY=1;entryDx=0;entryDy=0;fontSize=11;strokeWidth=2;" edge="1" parent="1" source="M7a1UfoR2cArPOc2KeIE-12" target="M7a1UfoR2cArPOc2KeIE-17">
          <mxGeometry relative="1" as="geometry" />
        </mxCell>
        <mxCell id="M7a1UfoR2cArPOc2KeIE-12" value="是否短链接" style="rhombus;whiteSpace=wrap;html=1;strokeWidth=2;" vertex="1" parent="1">
          <mxGeometry x="-130" y="330" width="110" height="80" as="geometry" />
        </mxCell>
        <mxCell id="M7a1UfoR2cArPOc2KeIE-21" style="edgeStyle=orthogonalEdgeStyle;rounded=0;orthogonalLoop=1;jettySize=auto;html=1;exitX=1;exitY=0.25;exitDx=0;exitDy=0;entryX=0.68;entryY=0.017;entryDx=0;entryDy=0;entryPerimeter=0;strokeWidth=2;" edge="1" parent="1" source="M7a1UfoR2cArPOc2KeIE-17" target="M7a1UfoR2cArPOc2KeIE-11">
          <mxGeometry relative="1" as="geometry" />
        </mxCell>
        <mxCell id="M7a1UfoR2cArPOc2KeIE-17" value="Web页面" style="rounded=1;whiteSpace=wrap;html=1;fillColor=#f5f5f5;strokeColor=#666666;fontColor=#333333;strokeWidth=2;" vertex="1" parent="1">
          <mxGeometry x="-125" y="180" width="100" height="60" as="geometry" />
        </mxCell>
        <mxCell id="M7a1UfoR2cArPOc2KeIE-23" value="events 表" style="rounded=1;whiteSpace=wrap;html=1;fillColor=#fff2cc;strokeColor=#d6b656;strokeWidth=2;" vertex="1" parent="1">
          <mxGeometry x="380" y="300" width="100" height="60" as="geometry" />
        </mxCell>
        <mxCell id="M7a1UfoR2cArPOc2KeIE-24" value="users 表" style="rounded=1;whiteSpace=wrap;html=1;fillColor=#fff2cc;strokeColor=#d6b656;strokeWidth=2;" vertex="1" parent="1">
          <mxGeometry x="380" y="380" width="100" height="60" as="geometry" />
        </mxCell>
        <mxCell id="M7a1UfoR2cArPOc2KeIE-29" value="是" style="text;html=1;align=center;verticalAlign=middle;resizable=0;points=[];autosize=1;strokeColor=none;fillColor=none;strokeWidth=2;" vertex="1" parent="1">
          <mxGeometry x="-5" y="370" width="30" height="20" as="geometry" />
        </mxCell>
        <mxCell id="M7a1UfoR2cArPOc2KeIE-30" value="否" style="text;html=1;align=center;verticalAlign=middle;resizable=0;points=[];autosize=1;strokeColor=none;fillColor=none;strokeWidth=2;" vertex="1" parent="1">
          <mxGeometry x="-100" y="280" width="30" height="20" as="geometry" />
        </mxCell>
        <mxCell id="M7a1UfoR2cArPOc2KeIE-31" value="重定向" style="text;html=1;align=center;verticalAlign=middle;resizable=0;points=[];autosize=1;strokeColor=none;fillColor=none;strokeWidth=2;" vertex="1" parent="1">
          <mxGeometry x="25" y="240" width="50" height="20" as="geometry" />
        </mxCell>
        <mxCell id="M7a1UfoR2cArPOc2KeIE-33" value="$ShortUrlRedirect" style="text;html=1;align=center;verticalAlign=middle;resizable=0;points=[];autosize=1;strokeColor=none;fillColor=none;strokeWidth=2;" vertex="1" parent="1">
          <mxGeometry x="-35" y="260" width="110" height="20" as="geometry" />
        </mxCell>
        <mxCell id="M7a1UfoR2cArPOc2KeIE-34" value="&lt;font style=&quot;font-size: 11px&quot;&gt;$pageview 事件记录渠道信息&lt;/font&gt;" style="text;html=1;align=center;verticalAlign=middle;resizable=0;points=[];autosize=1;strokeColor=none;fillColor=none;fontSize=15;strokeWidth=2;" vertex="1" parent="1">
          <mxGeometry x="120" y="220" width="170" height="20" as="geometry" />
        </mxCell>
        <mxCell id="M7a1UfoR2cArPOc2KeIE-36" value="&lt;font style=&quot;font-size: 11px&quot;&gt;profile_set_once 记录用户属性&lt;/font&gt;" style="text;html=1;align=center;verticalAlign=middle;resizable=0;points=[];autosize=1;strokeColor=none;fillColor=none;fontSize=15;strokeWidth=2;" vertex="1" parent="1">
          <mxGeometry x="120" y="240" width="180" height="20" as="geometry" />
        </mxCell>
        <mxCell id="M7a1UfoR2cArPOc2KeIE-38" value="记录渠道信息" style="text;html=1;align=center;verticalAlign=middle;resizable=0;points=[];autosize=1;strokeColor=none;fillColor=none;fontSize=11;strokeWidth=2;" vertex="1" parent="1">
          <mxGeometry x="160" y="350" width="90" height="20" as="geometry" />
        </mxCell>
        <mxCell id="M7a1UfoR2cArPOc2KeIE-39" value="Web渠道追踪" style="text;html=1;align=center;verticalAlign=middle;resizable=0;points=[];autosize=1;strokeColor=none;fillColor=none;fontSize=11;" vertex="1" parent="1">
          <mxGeometry x="-300" y="120" width="90" height="20" as="geometry" />
        </mxCell>
        <mxCell id="M7a1UfoR2cArPOc2KeIE-40" value="App&amp;nbsp;&lt;span style=&quot;white-space: pre&quot;&gt;	&lt;/span&gt;渠道追踪 - 通用渠道" style="text;html=1;align=center;verticalAlign=middle;resizable=0;points=[];autosize=1;strokeColor=none;fillColor=none;fontSize=11;" vertex="1" parent="1">
          <mxGeometry x="-375" y="530" width="150" height="20" as="geometry" />
        </mxCell>
        <mxCell id="M7a1UfoR2cArPOc2KeIE-42" style="edgeStyle=orthogonalEdgeStyle;rounded=0;orthogonalLoop=1;jettySize=auto;html=1;exitX=1;exitY=0.5;exitDx=0;exitDy=0;fontSize=11;entryX=0;entryY=0.5;entryDx=0;entryDy=0;strokeWidth=2;" edge="1" parent="1" source="M7a1UfoR2cArPOc2KeIE-41" target="M7a1UfoR2cArPOc2KeIE-43">
          <mxGeometry relative="1" as="geometry">
            <mxPoint x="-200" y="630" as="targetPoint" />
            <Array as="points">
              <mxPoint x="-180" y="630" />
              <mxPoint x="-180" y="630" />
            </Array>
          </mxGeometry>
        </mxCell>
        <mxCell id="M7a1UfoR2cArPOc2KeIE-41" value="第三方渠道" style="rounded=1;whiteSpace=wrap;html=1;fontSize=11;strokeWidth=2;fillColor=#f5f5f5;fontColor=#333333;strokeColor=#666666;" vertex="1" parent="1">
          <mxGeometry x="-375" y="600" width="120" height="60" as="geometry" />
        </mxCell>
        <mxCell id="M7a1UfoR2cArPOc2KeIE-44" style="edgeStyle=orthogonalEdgeStyle;rounded=0;orthogonalLoop=1;jettySize=auto;html=1;exitX=1;exitY=0.5;exitDx=0;exitDy=0;fontSize=11;fillColor=#d5e8d4;strokeColor=#82b366;strokeWidth=2;" edge="1" parent="1" source="M7a1UfoR2cArPOc2KeIE-43">
          <mxGeometry relative="1" as="geometry">
            <mxPoint x="10" y="630" as="targetPoint" />
          </mxGeometry>
        </mxCell>
        <mxCell id="M7a1UfoR2cArPOc2KeIE-43" value="APP下载页面/&lt;br&gt;应用商店" style="rounded=1;whiteSpace=wrap;html=1;fontSize=11;strokeWidth=2;fillColor=#d5e8d4;strokeColor=#82b366;" vertex="1" parent="1">
          <mxGeometry x="-160" y="600" width="120" height="60" as="geometry" />
        </mxCell>
        <mxCell id="M7a1UfoR2cArPOc2KeIE-46" style="edgeStyle=orthogonalEdgeStyle;rounded=0;orthogonalLoop=1;jettySize=auto;html=1;exitX=1;exitY=0.5;exitDx=0;exitDy=0;fontSize=11;fillColor=#d5e8d4;strokeColor=#82b366;strokeWidth=2;" edge="1" parent="1" source="M7a1UfoR2cArPOc2KeIE-45">
          <mxGeometry relative="1" as="geometry">
            <mxPoint x="180" y="630" as="targetPoint" />
          </mxGeometry>
        </mxCell>
        <mxCell id="M7a1UfoR2cArPOc2KeIE-45" value="用户下载APP" style="rounded=1;whiteSpace=wrap;html=1;fontSize=11;strokeWidth=2;fillColor=#d5e8d4;strokeColor=#82b366;" vertex="1" parent="1">
          <mxGeometry x="10" y="600" width="120" height="60" as="geometry" />
        </mxCell>
        <mxCell id="M7a1UfoR2cArPOc2KeIE-47" value="用户启动APP" style="rounded=1;whiteSpace=wrap;html=1;fontSize=11;strokeWidth=2;fillColor=#d5e8d4;strokeColor=#82b366;" vertex="1" parent="1">
          <mxGeometry x="180" y="600" width="120" height="60" as="geometry" />
        </mxCell>
        <mxCell id="M7a1UfoR2cArPOc2KeIE-50" style="edgeStyle=orthogonalEdgeStyle;rounded=0;orthogonalLoop=1;jettySize=auto;html=1;exitX=1;exitY=0.5;exitDx=0;exitDy=0;fontSize=11;strokeWidth=2;entryX=0;entryY=0.5;entryDx=0;entryDy=0;" edge="1" parent="1" source="M7a1UfoR2cArPOc2KeIE-48" target="M7a1UfoR2cArPOc2KeIE-51">
          <mxGeometry relative="1" as="geometry">
            <mxPoint x="-50" y="840.1428571428571" as="targetPoint" />
          </mxGeometry>
        </mxCell>
        <mxCell id="M7a1UfoR2cArPOc2KeIE-64" style="edgeStyle=orthogonalEdgeStyle;rounded=0;orthogonalLoop=1;jettySize=auto;html=1;exitX=0;exitY=0.5;exitDx=0;exitDy=0;fontSize=11;strokeWidth=2;" edge="1" parent="1" source="M7a1UfoR2cArPOc2KeIE-48" target="M7a1UfoR2cArPOc2KeIE-41">
          <mxGeometry relative="1" as="geometry" />
        </mxCell>
        <mxCell id="M7a1UfoR2cArPOc2KeIE-48" value="神策服务器" style="rounded=1;whiteSpace=wrap;html=1;fontSize=11;strokeWidth=2;fillColor=#fff2cc;strokeColor=#d6b656;" vertex="1" parent="1">
          <mxGeometry x="-240" y="810" width="120" height="60" as="geometry" />
        </mxCell>
        <mxCell id="M7a1UfoR2cArPOc2KeIE-54" style="edgeStyle=orthogonalEdgeStyle;rounded=0;orthogonalLoop=1;jettySize=auto;html=1;exitX=0.5;exitY=0;exitDx=0;exitDy=0;fontSize=11;strokeWidth=2;" edge="1" parent="1" source="M7a1UfoR2cArPOc2KeIE-51" target="M7a1UfoR2cArPOc2KeIE-53">
          <mxGeometry relative="1" as="geometry" />
        </mxCell>
        <mxCell id="M7a1UfoR2cArPOc2KeIE-55" style="edgeStyle=orthogonalEdgeStyle;rounded=0;orthogonalLoop=1;jettySize=auto;html=1;exitX=0.5;exitY=1;exitDx=0;exitDy=0;fontSize=11;entryX=0;entryY=0.5;entryDx=0;entryDy=0;strokeWidth=2;" edge="1" parent="1" source="M7a1UfoR2cArPOc2KeIE-51" target="M7a1UfoR2cArPOc2KeIE-56">
          <mxGeometry relative="1" as="geometry">
            <mxPoint x="90" y="890" as="targetPoint" />
          </mxGeometry>
        </mxCell>
        <mxCell id="M7a1UfoR2cArPOc2KeIE-51" value="匹配成功" style="rhombus;whiteSpace=wrap;html=1;fontSize=11;strokeWidth=2;" vertex="1" parent="1">
          <mxGeometry x="40" y="800" width="100" height="80" as="geometry" />
        </mxCell>
        <mxCell id="M7a1UfoR2cArPOc2KeIE-53" value="事件表" style="rounded=1;whiteSpace=wrap;html=1;fontSize=11;strokeWidth=2;fillColor=#fff2cc;strokeColor=#d6b656;" vertex="1" parent="1">
          <mxGeometry x="180" y="740" width="120" height="60" as="geometry" />
        </mxCell>
        <mxCell id="M7a1UfoR2cArPOc2KeIE-56" value="神策服务器" style="rounded=1;whiteSpace=wrap;html=1;fontSize=11;strokeWidth=2;fillColor=#fff2cc;strokeColor=#d6b656;" vertex="1" parent="1">
          <mxGeometry x="180" y="890" width="120" height="60" as="geometry" />
        </mxCell>
        <mxCell id="M7a1UfoR2cArPOc2KeIE-57" value="是" style="text;html=1;align=center;verticalAlign=middle;resizable=0;points=[];autosize=1;strokeColor=none;fillColor=none;fontSize=11;strokeWidth=2;" vertex="1" parent="1">
          <mxGeometry x="115" y="750" width="30" height="20" as="geometry" />
        </mxCell>
        <mxCell id="M7a1UfoR2cArPOc2KeIE-58" value="否" style="text;html=1;align=center;verticalAlign=middle;resizable=0;points=[];autosize=1;strokeColor=none;fillColor=none;fontSize=11;strokeWidth=2;" vertex="1" parent="1">
          <mxGeometry x="115" y="930" width="30" height="20" as="geometry" />
        </mxCell>
        <mxCell id="M7a1UfoR2cArPOc2KeIE-65" value="" style="endArrow=classic;html=1;rounded=0;fontSize=11;entryX=0.5;entryY=0;entryDx=0;entryDy=0;strokeWidth=2;" edge="1" parent="1" target="M7a1UfoR2cArPOc2KeIE-48">
          <mxGeometry width="50" height="50" relative="1" as="geometry">
            <mxPoint x="-180.23" y="630" as="sourcePoint" />
            <mxPoint x="-180.29" y="710" as="targetPoint" />
          </mxGeometry>
        </mxCell>
        <mxCell id="M7a1UfoR2cArPOc2KeIE-68" value="" style="endArrow=classic;html=1;rounded=0;fontSize=11;strokeWidth=2;entryX=1;entryY=0.25;entryDx=0;entryDy=0;exitX=0.75;exitY=1;exitDx=0;exitDy=0;" edge="1" parent="1" source="M7a1UfoR2cArPOc2KeIE-47" target="M7a1UfoR2cArPOc2KeIE-48">
          <mxGeometry width="50" height="50" relative="1" as="geometry">
            <mxPoint x="60" y="750" as="sourcePoint" />
            <mxPoint x="110" y="700" as="targetPoint" />
          </mxGeometry>
        </mxCell>
        <mxCell id="M7a1UfoR2cArPOc2KeIE-69" value="安师大收到" style="text;html=1;align=center;verticalAlign=middle;resizable=0;points=[];autosize=1;strokeColor=none;fillColor=none;fontSize=11;rotation=-25;" vertex="1" parent="1">
          <mxGeometry x="-60" y="760" width="80" height="20" as="geometry" />
        </mxCell>
      </root>
    </mxGraphModel>
  </diagram>
</mxfile>
